<svg width="59" height="59" viewBox="0 0 59 59" fill="none" xmlns="http://www.w3.org/2000/svg">
<path d="M27.4721 1.23462C28.2706 0.132729 29.9126 0.13273 30.7111 1.23462L32.7643 4.06794C33.3779 4.9146 34.54 5.14577 35.4309 4.59835L38.412 2.76644C39.5714 2.05399 41.0884 2.68234 41.4045 4.00593L42.2171 7.4093C42.4599 8.42631 43.4452 9.08463 44.4777 8.91979L47.933 8.36817C49.2768 8.15364 50.4378 9.31467 50.2233 10.6585L49.6717 14.1137C49.5068 15.1463 50.1651 16.1315 51.1822 16.3744L54.5855 17.187C55.9091 17.503 56.5375 19.02 55.825 20.1794L53.9931 23.1606C53.4457 24.0514 53.6768 25.2136 54.5235 25.8271L57.3568 27.8803C58.4587 28.6789 58.4587 30.3208 57.3568 31.1193L54.5235 33.1725C53.6768 33.7861 53.4457 34.9482 53.9931 35.8391L55.825 38.8203C56.5375 39.9796 55.9091 41.4966 54.5855 41.8127L51.1822 42.6253C50.1651 42.8681 49.5068 43.8534 49.6717 44.8859L50.2233 48.3412C50.4378 49.685 49.2768 50.846 47.933 50.6315L44.4777 50.0799C43.4452 49.915 42.4599 50.5733 42.2171 51.5904L41.4045 54.9937C41.0884 56.3173 39.5714 56.9457 38.412 56.2332L35.4309 54.4013C34.54 53.8539 33.3779 54.0851 32.7643 54.9317L30.7111 57.765C29.9126 58.8669 28.2706 58.8669 27.4721 57.765L25.4189 54.9317C24.8054 54.085 23.6432 53.8539 22.7524 54.4013L19.7712 56.2332C18.6118 56.9457 17.0948 56.3173 16.7788 54.9937L15.9661 51.5904C15.7233 50.5733 14.7381 49.915 13.7055 50.0799L10.2503 50.6315C8.90647 50.846 7.74543 49.685 7.95996 48.3412L8.51159 44.8859C8.67642 43.8534 8.01811 42.8681 7.00109 42.6253L3.59773 41.8127C2.27414 41.4966 1.64579 39.9796 2.35823 38.8202L4.19015 35.8391C4.73757 34.9482 4.5064 33.7861 3.65973 33.1725L0.82642 31.1193C-0.275474 30.3208 -0.275473 28.6789 0.826421 27.8803L3.65973 25.8271C4.5064 25.2136 4.73757 24.0514 4.19015 23.1606L2.35823 20.1794C1.64579 19.02 2.27414 17.503 3.59773 17.187L7.00109 16.3744C8.01811 16.1315 8.67642 15.1463 8.51158 14.1137L7.95996 10.6585C7.74543 9.31467 8.90647 8.15364 10.2503 8.36817L13.7055 8.91979C14.7381 9.08463 15.7233 8.42631 15.9661 7.4093L16.7788 4.00593C17.0948 2.68234 18.6118 2.05399 19.7712 2.76644L22.7524 4.59835C23.6432 5.14577 24.8054 4.9146 25.4189 4.06793L27.4721 1.23462Z" fill="#1A1A1A"/>
</svg>
