<svg width="82" height="82" viewBox="0 0 82 82" fill="none" xmlns="http://www.w3.org/2000/svg">
<path fill-rule="evenodd" clip-rule="evenodd" d="M16.083 41C16.083 40.4477 16.5307 40 17.083 40H64.9163C65.4686 40 65.9163 40.4477 65.9163 41C65.9163 41.5523 65.4686 42 64.9163 42H17.083C16.5307 42 16.083 41.5523 16.083 41Z" fill="url(#paint0_linear_1115_2591)"/>
<path fill-rule="evenodd" clip-rule="evenodd" d="M40.2929 16.3759C40.6834 15.9854 41.3166 15.9854 41.7071 16.3759L65.6238 40.2926C66.0143 40.6831 66.0143 41.3163 65.6238 41.7068L41.7071 65.6234C41.3166 66.014 40.6834 66.014 40.2929 65.6234C39.9024 65.2329 39.9024 64.5998 40.2929 64.2092L63.5025 40.9997L40.2929 17.7901C39.9024 17.3996 39.9024 16.7664 40.2929 16.3759Z" fill="url(#paint1_linear_1115_2591)"/>
<defs>
<linearGradient id="paint0_linear_1115_2591" x1="66.6247" y1="41.9071" x2="66.5649" y2="39.6947" gradientUnits="userSpaceOnUse">
<stop stop-color="#A7F306"/>
<stop offset="1" stop-color="#F3CD06"/>
</linearGradient>
<linearGradient id="paint1_linear_1115_2591" x1="65.7708" y1="60.4747" x2="30.1471" y2="46.7002" gradientUnits="userSpaceOnUse">
<stop stop-color="#A7F306"/>
<stop offset="1" stop-color="#F3CD06"/>
</linearGradient>
</defs>
</svg>
